<?xml version="1.0" encoding="utf-8"?>
<!-- Generator: Adobe Illustrator 26.2.1, SVG Export Plug-In . SVG Version: 6.00 Build 0)  -->
<svg version="1.1" xmlns="http://www.w3.org/2000/svg" xmlns:xlink="http://www.w3.org/1999/xlink" x="0px" y="0px"
	 viewBox="0 0 500 500" style="enable-background:new 0 0 500 500;" xml:space="preserve">
<g id="Layer_1">
</g>
<g id="Layer_2">
	<g>
		<g>
			<path d="M238.68,320.56c-5.64,0-9.66,2.7-12.06,8.1c-2.4,5.39-3.78,15.27-4.13,29.61h32.28v-1.98c0-12.88-1.24-22.06-3.71-27.53
				C248.59,323.29,244.46,320.56,238.68,320.56z"/>
			<path d="M365.84,324.21c-6.48,0-11.4,3.9-14.78,11.7c-3.38,7.8-5.07,19.19-5.07,34.16c0,14.9,1.69,26.26,5.07,34.05
				c3.38,7.8,8.31,11.7,14.78,11.7s11.37-3.87,14.68-11.6c3.31-7.73,4.96-19.11,4.96-34.16c0-15.11-1.65-26.53-4.96-34.26
				C377.21,328.08,372.32,324.21,365.84,324.21z"/>
			<path d="M42.13,321.86v151.95h417.34V189.82L42.13,321.86z M158.17,423.61c-3.65,3.66-8.13,5.48-13.42,5.48
				c-5.08,0-9.49-1.86-13.21-5.59c-3.73-3.73-5.59-8.13-5.59-13.22c0-5.22,1.84-9.68,5.54-13.37c3.69-3.69,8.11-5.53,13.27-5.53
				c5.29,0,9.77,1.83,13.42,5.48c3.66,3.66,5.49,8.13,5.49,13.42C163.65,415.51,161.83,419.95,158.17,423.61z M290.08,368.09H222.7
				c-0.07,0.98-0.12,2.04-0.16,3.19c-0.03,1.15-0.05,2.8-0.05,4.96c0,14.07,1.95,24.43,5.85,31.08c3.9,6.65,9.99,9.98,18.28,9.98
				c6.41,0,12.4-2.14,17.97-6.43c5.57-4.28,10.38-10.39,14.42-18.33l10.03,3.55c-4.39,11-10.76,19.26-19.12,24.76
				c-8.36,5.5-18.66,8.25-30.92,8.25c-7.17,0-13.89-1.25-20.16-3.76c-6.27-2.51-11.84-6.09-16.71-10.76
				c-5.71-5.57-10.06-12.13-13.06-19.69c-3-7.56-4.49-15.83-4.49-24.81c0-17.55,5.07-31.83,15.2-42.83
				c10.13-11,23.21-16.51,39.23-16.51c15.32,0,27.67,5.08,37.03,15.25c9.37,10.17,14.05,23.71,14.05,40.63V368.09z M433.64,425.65
				c-7.87,0-15.32,0.4-22.36,1.2c-7.03,0.8-13.68,2.03-19.95,3.71v-25.7c-4.6,8.22-9.8,14.31-15.62,18.28
				c-5.81,3.97-12.52,5.95-20.11,5.95c-13.86,0-25.07-5.39-33.64-16.19s-12.85-25.07-12.85-42.83c0-17.62,4.33-31.91,13.01-42.88
				c8.67-10.97,19.83-16.45,33.48-16.45c7.1,0,13.32,1.46,18.65,4.39c5.33,2.92,9.25,7.03,11.75,12.33v-38.97
				c0-5.08-1.17-8.49-3.5-10.24c-2.33-1.74-7.02-2.61-14.05-2.61h-1.98l0.1-10.03c8.77-0.07,17.57-0.52,26.38-1.36
				c8.81-0.84,17.53-2.02,26.17-3.55v142.07c0,5.22,0.75,8.6,2.25,10.13c1.5,1.53,4.61,2.3,9.35,2.3h2.92V425.65z"/>
		</g>
		<path d="M42.13,29.91V313.9l417.34-132.04V29.91H42.13z M98.25,157.51c5.49,10.29,14.97,11.15,25.06,10.69
			c4.67-0.21,7.05-2.53,7.07-7.23c0.02-5.26,0.01-10.51,0.03-15.77c0.03-9.48,4.19-14.29,13.66-14.85c4.15-0.25,8.5,0.26,12.54,1.28
			c6.83,1.72,10.35,6.58,10.5,13.72c0.15,7.27,0.09,14.55,0.04,21.83c-0.08,11.4-4.76,17.48-15.97,20.33
			c-3.09,0.78-6.37,1.06-9.56,1.1c-10.71,0.13-21.43-0.12-32.14,0.09c-23.46,0.44-41.66-7.4-50.9-30.51
			c-1.44-13.66-0.32-31.98-0.32-31.98c7.21-19.88,21.91-29.83,41.9-30.99c19.34-1.13,38.8-0.3,58.21-0.23
			c5.68,0.02,9.67,3.88,10.02,9.21c0.35,5.31-3.16,9.82-8.58,10.75c-1.97,0.34-4.03,0.25-6.04,0.27c-12.93,0.14-25.92-0.4-38.77,0.7
			c-5.12,0.44-10.95,3.43-14.67,7.09C93.28,129.93,92.92,147.53,98.25,157.51z M215.46,172.12c-0.17,11.62-7.53,16.93-21.78,16.6
			c-10.62-0.25-16.43-6.33-16.46-17.3c-0.03-10.09-0.01-20.18,0-30.26c0-10.09-0.06-20.18,0.02-30.26
			c0.08-9.65,6.25-15.73,15.93-15.87c1.61-0.02,3.23-0.01,4.84,0c10.61,0.05,17.34,6.11,17.47,16.57
			C215.71,131.76,215.75,151.95,215.46,172.12z M308.35,150.66c-0.4,0.03-0.81,0.01-1.21,0.01c-4.25,0-8.49,0-12.74-0.01
			c-4.65-0.01-9.31,0.14-13.95-0.04c-5.88-0.24-8.37-3.48-8.23-10.29c0.13-6.3,2.69-9.25,8.55-9.33c9.1-0.12,18.2-0.13,27.29,0
			c5.79,0.08,8.45,3.15,8.59,9.37C316.81,147.08,314.23,150.28,308.35,150.66z M309.66,115.2c-8.08,0.22-16.16,0.06-24.24,0.06
			c-12.93,0.01-19.71,6.46-20.04,19.62c-0.28,11.31-0.16,22.63-0.07,33.94c0.06,7.07-1.36,13.55-8.11,17.05
			c-7.39,3.83-15.23,3.77-22.66,0.01c-4.83-2.44-7.41-6.71-7.4-12.31c0.01-7.68,0-15.36,0-23.03c0-5.25,0.29-10.53-0.06-15.76
			c-1.44-21.57,13-35.25,31.58-38.78c8.03-1.52,16.44-1.17,24.68-1.37c8.68-0.21,17.37-0.08,26.06-0.04
			c6.66,0.03,10.1,3.44,10.16,9.94C319.61,110.83,315.94,115.02,309.66,115.2z M435.04,116h-31.5c0.03,0.31,0.08,0.61,0.08,0.93
			c0,2.59,0,4.98,0,7.37c0,15.62,0.06,31.24-0.03,46.87c-0.05,8.63-3.81,14.8-11.35,16.49c-14.83,3.32-27.64-0.43-27.43-19.16
			c0.18-15.22,0.05-30.44,0.02-45.66c0-2.1-0.21-4.19-0.34-6.56c-10.8,0-20.9,0.12-30.99-0.04c-1.07-0.02-2.03-0.12-2.92-0.29
			c-6.25-0.66-7.98-5.32-7.98-10.44c0-5.77,3.41-10.74,10.6-10.5h101.84c7.92,0.48,10.6,4.72,10.6,10.5
			C445.64,111.27,443.2,116.48,435.04,116z"/>
	</g>
</g>
</svg>
